<svg xmlns="http://www.w3.org/2000/svg" width="1024" height="1024" viewBox="0 0 1024 1024">
  <defs>
    <linearGradient id="dc-bg" x1="112" y1="80" x2="912" y2="944" gradientUnits="userSpaceOnUse">
      <stop offset="0" stop-color="#fffbef"/>
      <stop offset="0.48" stop-color="#f4fbf3"/>
      <stop offset="1" stop-color="#e5f4f0"/>
    </linearGradient>
    <linearGradient id="dc-mark" x1="248" y1="224" x2="740" y2="804" gradientUnits="userSpaceOnUse">
      <stop offset="0" stop-color="#1d322b"/>
      <stop offset="1" stop-color="#335d50"/>
    </linearGradient>
    <linearGradient id="dc-code" x1="400" y1="360" x2="640" y2="644" gradientUnits="userSpaceOnUse">
      <stop offset="0" stop-color="#00a6a6"/>
      <stop offset="1" stop-color="#16b973"/>
    </linearGradient>
    <linearGradient id="dc-gold" x1="620" y1="260" x2="730" y2="686" gradientUnits="userSpaceOnUse">
      <stop offset="0" stop-color="#ffe07a"/>
      <stop offset="1" stop-color="#f28a3d"/>
    </linearGradient>
    <filter id="dc-shadow" x="8%" y="8%" width="84%" height="88%" color-interpolation-filters="sRGB">
      <feDropShadow dx="0" dy="24" stdDeviation="28" flood-color="#10241e" flood-opacity="0.16"/>
    </filter>
  </defs>

  <rect width="1024" height="1024" rx="220" fill="url(#dc-bg)"/>
  <rect x="28" y="28" width="968" height="968" rx="198" fill="none" stroke="#1d322b" stroke-width="8" stroke-opacity="0.08"/>

  <g filter="url(#dc-shadow)">
    <path d="M335 248v528" fill="none" stroke="url(#dc-mark)" stroke-width="82" stroke-linecap="round"/>
    <path d="M335 248c244 0 394 102 394 264S579 776 335 776" fill="none" stroke="url(#dc-mark)" stroke-width="82" stroke-linecap="round"/>

    <path d="M444 386 572 512 444 638" fill="none" stroke="url(#dc-code)" stroke-width="70" stroke-linecap="round" stroke-linejoin="round"/>
    <path d="M604 656h112" fill="none" stroke="url(#dc-gold)" stroke-width="58" stroke-linecap="round"/>

    <path d="M703 292c8 36 28 56 64 64-36 8-56 28-64 64-8-36-28-56-64-64 36-8 56-28 64-64z" fill="url(#dc-gold)"/>
    <circle cx="258" cy="284" r="18" fill="#00a6a6" opacity="0.28"/>
    <circle cx="765" cy="724" r="20" fill="#f2a541" opacity="0.34"/>
  </g>
</svg>
